<?xml version="1.0" encoding="utf-8"?>
<!-- Generator: Adobe Illustrator 25.4.1, SVG Export Plug-In . SVG Version: 6.00 Build 0)  -->
<svg version="1.1" id="Capa_1" xmlns="http://www.w3.org/2000/svg" xmlns:xlink="http://www.w3.org/1999/xlink" x="0px" y="0px"
	 viewBox="0 0 1500 1500" style="enable-background:new 0 0 1500 1500;" xml:space="preserve">
<style type="text/css">
	.st0{fill:url(#SVGID_1_);}
	.st1{fill:#FFFFFF;}
	.st2{fill:url(#SVGID_00000072269533461533751440000004834924763825106305_);}
	.st3{fill:url(#SVGID_00000002374133270270379860000007964790561643448725_);}
	.st4{fill:url(#SVGID_00000041983621226050603960000012716302038668206014_);}
	.st5{fill:url(#SVGID_00000177468663490178730200000013907489399810390195_);}
	.st6{fill:url(#SVGID_00000098927699666854076570000006733682080670634883_);}
	.st7{fill:url(#SVGID_00000062880009909116349740000008107533429555324288_);}
	.st8{fill:url(#SVGID_00000008150977335692205050000013352614747619893949_);}
	.st9{fill:url(#SVGID_00000087386852908705544510000005185370506692299167_);}
</style>
<linearGradient id="SVGID_1_" gradientUnits="userSpaceOnUse" x1="423.2499" y1="186.4522" x2="1076.75" y2="1318.3477">
	<stop  offset="0" style="stop-color:#DE307A"/>
	<stop  offset="1" style="stop-color:#00155C"/>
</linearGradient>
<circle class="st0" cx="750" cy="752.4" r="653.39"/>
<circle class="st1" cx="748.32" cy="753.02" r="625.89"/>
<linearGradient id="SVGID_00000135651813637395082900000007333655823277693314_" gradientUnits="userSpaceOnUse" x1="466.7808" y1="265.3746" x2="1029.8662" y2="1240.667">
	<stop  offset="0" style="stop-color:#DE307A"/>
	<stop  offset="1" style="stop-color:#00155C"/>
</linearGradient>
<circle style="fill:url(#SVGID_00000135651813637395082900000007333655823277693314_);" cx="748.32" cy="753.02" r="562.99"/>
<path class="st1" d="M1126.07,1061.42c0,18.1-14.66,32.77-32.76,32.77c-18.1,0-32.76-14.67-32.76-32.77
	c0-18.09,14.66-32.76,32.76-32.76C1111.41,1028.66,1126.07,1043.33,1126.07,1061.42z"/>
<g>
	<g>
		<path class="st1" d="M918.58,870.31c-61.04,87.06-126.39,171.93-204.4,246.12c-39.09,36.83-81.35,71.28-130.04,97.22
			c-24.27,12.98-50.32,23.8-78.85,29.13c-28.14,5.1-61.01,4.48-89.23-14.96l-4.01-2.96l-4.96-4.15c-3.05-2.83-5.8-5.64-8.4-8.7
			c-5.18-6.07-9.54-12.67-13.15-19.49c-7.29-13.69-11.48-28.14-14.16-42.43c-5.1-28.67-4.18-56.95-0.65-84.33
			c7.26-54.81,23.6-106.85,43.19-157.1c39.75-100.46,94.97-193.33,158.29-279.54c63.42-86,134.04-166.7,213.41-238.3
			c19.91-17.83,40.45-35.02,61.93-51.12c21.38-16.23,43.75-31.35,67.57-44.4c23.83-12.95,49.18-24.04,76.88-29.75
			c27.28-5.44,59.09-5.41,86.21,12.89c12.1,8.11,23.05,20.82,29.99,33.85c7.34,13.21,11.51,27.42,14.19,41.49
			c5.15,28.24,4.39,56.32,0.82,83.54c-6.95,54.57-24.33,106.24-45.21,155.68C1035.84,692.03,978.72,782.65,918.58,870.31z
			 M916.06,868.55c60.94-87.03,109.45-182.85,143.91-282.43c16.79-49.87,30.37-100.82,36.37-151.96c2.6-25.51,3.35-51.21-0.89-75.4
			c-4.53-24.08-13.69-46.32-32.59-59.81c-17.17-12.74-42.74-16.07-67.17-12.2c-24.75,3.68-49.3,12.69-72.78,23.8
			c-47.09,22.51-90.57,53.44-130.71,87.78c-80.25,69.23-147.81,152.28-206.2,240.47C528.25,727.3,477.85,820.86,440.96,919
			c-18.07,49.05-32.68,99.65-38.38,150.54c-2.63,25.33-3.24,50.84,1.06,74.61c4.45,23.84,14.01,44.8,32.1,57.41
			c16.07,11.61,40.57,14.36,64.16,10.15c23.91-4.06,47.76-13.35,70.79-24.44c45.95-22.89,89.18-53.12,130.17-86.07
			C782.46,1034.58,855.29,955.68,916.06,868.55z"/>
		<path class="st1" d="M580.36,868.55c60.77,87.13,133.6,166.02,215.23,232.65c40.98,32.95,84.21,63.17,130.16,86.06
			c23.02,11.1,46.89,20.39,70.79,24.45c23.59,4.21,48.09,1.45,64.15-10.15c18.1-12.62,27.65-33.57,32.1-57.41
			c4.3-23.77,3.7-49.28,1.07-74.61c-5.68-50.89-20.32-101.49-38.38-150.55c-36.89-98.13-87.3-191.69-145.04-280.17
			c-58.39-88.2-125.96-171.26-206.21-240.48c-40.13-34.33-83.61-65.26-130.71-87.77c-23.47-11.11-48.02-20.13-72.77-23.8
			c-24.44-3.87-50-0.54-67.17,12.2c-18.9,13.48-28.06,35.71-32.6,59.81c-4.23,24.19-3.48,49.89-0.89,75.39
			c6.01,51.14,19.59,102.1,36.37,151.97C470.93,685.7,519.43,781.52,580.36,868.55z M577.83,870.31
			c-60.14-87.66-117.26-178.28-159.42-277.29c-20.86-49.45-38.26-101.13-45.19-155.68c-3.57-27.22-4.34-55.3,0.81-83.54
			c2.69-14.07,6.85-28.29,14.2-41.49c6.94-13.03,17.89-25.74,29.99-33.85c27.12-18.3,58.93-18.34,86.2-12.89
			c27.7,5.71,53.05,16.8,76.88,29.75c23.82,13.05,46.19,28.17,67.57,44.4c21.47,16.1,42.02,33.29,61.93,51.12
			c79.37,71.58,149.99,152.3,213.4,238.3c63.34,86.19,118.55,179.08,158.3,279.52c19.59,50.27,35.92,102.31,43.17,157.13
			c3.53,27.37,4.46,55.65-0.64,84.32c-2.68,14.29-6.87,28.74-14.16,42.43c-3.62,6.83-7.98,13.42-13.16,19.49
			c-2.6,3.06-5.35,5.86-8.4,8.69l-4.96,4.16l-4.01,2.96c-28.21,19.44-61.09,20.06-89.22,14.96c-28.54-5.34-54.58-16.15-78.86-29.13
			c-48.68-25.94-90.95-60.39-130.04-97.22C704.22,1042.24,638.88,957.37,577.83,870.31z"/>
		<path class="st1" d="M746.88,956.21c106.22,0.6,212.68-13.41,314.18-41.66c50.55-14.48,100.18-32.37,145.37-56.72
			c22.35-12.41,43.69-26.54,60.8-43.74c17.04-16.84,28.92-38.44,28.69-58.27c0.12-22.05-11.48-41.94-28.39-59.33
			c-16.93-17.21-38.13-31.43-60.35-43.9c-44.84-24.69-94.62-41.92-145.11-55.47c-101.45-26.45-206.96-39.22-312.55-43.08
			c-105.72-3.16-212.55,4.15-315.38,29.79c-51.19,12.99-101.54,30.67-147.08,56.18c-22.61,12.76-44.15,27.63-61.43,45.72
			c-17.26,17.74-29.27,40.54-28.77,61.91c0.12,23.23,13,43.52,30.06,61.12c17.32,17.42,38.74,31.62,61.09,44.21
			c45.23,24.59,94.7,42.87,145.11,57.93C534.38,940.17,640.64,955.8,746.88,956.21z M746.86,959.29
			c-106.3-1.42-213.27-7.02-318.47-29.67c-52.44-11.48-104.67-27.07-153.26-52.86c-24.28-12.77-47.68-28.35-67.77-48.83
			c-9.95-10.31-19.17-21.91-25.71-35.52c-6.63-13.19-10.72-29.47-10.36-44.03c0.69-32.72,19.01-58.71,39.17-77.87
			c20.64-19.33,44.32-33.66,68.65-45.65c24.41-11.93,49.65-21.5,75.23-29.6c25.55-8.27,51.43-15.13,77.48-21.11
			c104.25-23.58,210.91-34.72,317.74-36.94c106.95-2.02,214.67,6.43,319.66,31.89c52.36,12.98,104.29,29.64,153.26,55.32
			c24.41,12.91,48.04,28.45,68.52,49.16c10.13,10.42,19.53,22.18,26.51,36.02c3.48,6.89,6.37,14.25,8.34,21.99
			c1.01,3.89,1.71,7.75,2.26,11.87l0.53,6.45l0.11,4.99c-0.4,34.26-18.85,61.46-39.24,81.52c-20.8,20.24-44.67,35.28-69.27,47.62
			c-49.27,24.81-101.78,39.49-154.42,50.18C960.21,955.18,853.18,959.62,746.86,959.29z"/>
		<g>
			<path class="st1" d="M862.03,751.69c0,62.87-50.96,113.82-113.83,113.82c-62.86,0-113.82-50.95-113.82-113.82
				c0-62.86,50.96-113.82,113.82-113.82C811.07,637.87,862.03,688.84,862.03,751.69z"/>
			<g>
				<defs>
					<path id="SVGID_00000028310516019293356730000005360606107825486266_" d="M862.03,751.69c0,62.87-50.96,113.82-113.83,113.82
						c-62.86,0-113.82-50.95-113.82-113.82c0-62.86,50.96-113.82,113.82-113.82C811.07,637.87,862.03,688.84,862.03,751.69z"/>
				</defs>
				<use xlink:href="#SVGID_00000028310516019293356730000005360606107825486266_"  style="overflow:visible;fill:#FFFFFF;"/>
				<clipPath id="SVGID_00000111156967272689776180000011264164185797473718_">
					<use xlink:href="#SVGID_00000028310516019293356730000005360606107825486266_"  style="overflow:visible;"/>
				</clipPath>
			</g>
		</g>
		<g>
			<path class="st1" d="M937.74,326.28c0,28.96-23.48,52.43-52.44,52.43c-28.96,0-52.43-23.47-52.43-52.43
				c0-28.96,23.47-52.43,52.43-52.43C914.26,273.85,937.74,297.32,937.74,326.28z"/>
			<g>
				<defs>
					<path id="SVGID_00000074421564556701485310000007617798126552250781_" d="M937.74,326.28c0,28.96-23.48,52.43-52.44,52.43
						c-28.96,0-52.43-23.47-52.43-52.43c0-28.96,23.47-52.43,52.43-52.43C914.26,273.85,937.74,297.32,937.74,326.28z"/>
				</defs>
				<use xlink:href="#SVGID_00000074421564556701485310000007617798126552250781_"  style="overflow:visible;fill:#FFFFFF;"/>
				<clipPath id="SVGID_00000082358996675590010600000015585327902127666835_">
					<use xlink:href="#SVGID_00000074421564556701485310000007617798126552250781_"  style="overflow:visible;"/>
				</clipPath>
			</g>
		</g>
		<g>
			<path class="st1" d="M1157.06,1073.82c0,28.96-23.48,52.43-52.44,52.43c-28.96,0-52.43-23.47-52.43-52.43
				c0-28.96,23.47-52.43,52.43-52.43C1133.58,1021.39,1157.06,1044.86,1157.06,1073.82z"/>
			<g>
				<defs>
					<path id="SVGID_00000065759898967556386020000017531452218778898048_" d="M1157.06,1073.82c0,28.96-23.48,52.43-52.44,52.43
						c-28.96,0-52.43-23.47-52.43-52.43c0-28.96,23.47-52.43,52.43-52.43C1133.58,1021.39,1157.06,1044.86,1157.06,1073.82z"/>
				</defs>
				<use xlink:href="#SVGID_00000065759898967556386020000017531452218778898048_"  style="overflow:visible;fill:#FFFFFF;"/>
				<clipPath id="SVGID_00000019675690881471923200000006899304294756358528_">
					<use xlink:href="#SVGID_00000065759898967556386020000017531452218778898048_"  style="overflow:visible;"/>
				</clipPath>
			</g>
		</g>
		<g>
			<path class="st1" d="M351.42,878.38c0,28.96-23.48,52.43-52.44,52.43c-28.96,0-52.43-23.47-52.43-52.43
				c0-28.96,23.47-52.43,52.43-52.43C327.94,825.95,351.42,849.42,351.42,878.38z"/>
			<g>
				<defs>
					<path id="SVGID_00000039116944083619399590000002962227705974809256_" d="M351.42,878.38c0,28.96-23.48,52.43-52.44,52.43
						c-28.96,0-52.43-23.47-52.43-52.43c0-28.96,23.47-52.43,52.43-52.43C327.94,825.95,351.42,849.42,351.42,878.38z"/>
				</defs>
				<use xlink:href="#SVGID_00000039116944083619399590000002962227705974809256_"  style="overflow:visible;fill:#FFFFFF;"/>
				<clipPath id="SVGID_00000011747821202129720310000005001980334012177339_">
					<use xlink:href="#SVGID_00000039116944083619399590000002962227705974809256_"  style="overflow:visible;"/>
				</clipPath>
			</g>
		</g>
	</g>
	<g>
		
			<linearGradient id="SVGID_00000082331580731196130530000001865369814169326976_" gradientUnits="userSpaceOnUse" x1="344.3019" y1="350.2337" x2="1152.1204" y2="1158.0521">
			<stop  offset="1.269467e-03" style="stop-color:#FFFFFF"/>
			<stop  offset="1" style="stop-color:#FFFFFF"/>
		</linearGradient>
		<path style="fill:url(#SVGID_00000082331580731196130530000001865369814169326976_);" d="M918.58,870.31
			c-61.04,87.06-126.39,171.93-204.4,246.12c-39.09,36.83-81.35,71.28-130.04,97.22c-24.27,12.98-50.32,23.8-78.85,29.13
			c-28.14,5.1-61.01,4.48-89.23-14.96l-4.01-2.96l-4.96-4.15c-3.05-2.83-5.8-5.64-8.4-8.7c-5.18-6.07-9.54-12.67-13.15-19.49
			c-7.29-13.69-11.48-28.14-14.16-42.43c-5.1-28.67-4.18-56.95-0.65-84.33c7.26-54.81,23.6-106.85,43.19-157.1
			c39.75-100.46,94.97-193.33,158.29-279.54c63.42-86,134.04-166.7,213.41-238.3c19.91-17.83,40.45-35.02,61.93-51.12
			c21.38-16.23,43.75-31.35,67.57-44.4c23.83-12.95,49.18-24.04,76.88-29.75c27.28-5.44,59.09-5.41,86.21,12.89
			c12.1,8.11,23.05,20.82,29.99,33.85c7.34,13.21,11.51,27.42,14.19,41.49c5.15,28.24,4.39,56.32,0.82,83.54
			c-6.95,54.57-24.33,106.24-45.21,155.68C1035.84,692.03,978.72,782.65,918.58,870.31z M916.06,868.55
			c60.94-87.03,109.45-182.85,143.91-282.43c16.79-49.87,30.37-100.82,36.37-151.96c2.6-25.51,3.35-51.21-0.89-75.4
			c-4.53-24.08-13.69-46.32-32.59-59.81c-17.17-12.74-42.74-16.07-67.17-12.2c-24.75,3.68-49.3,12.69-72.78,23.8
			c-47.09,22.51-90.57,53.44-130.71,87.78c-80.25,69.23-147.81,152.28-206.2,240.47C528.25,727.3,477.85,820.86,440.96,919
			c-18.07,49.05-32.68,99.65-38.38,150.54c-2.63,25.33-3.24,50.84,1.06,74.61c4.45,23.84,14.01,44.8,32.1,57.41
			c16.07,11.61,40.57,14.36,64.16,10.15c23.91-4.06,47.76-13.35,70.79-24.44c45.95-22.89,89.18-53.12,130.17-86.07
			C782.46,1034.58,855.29,955.68,916.06,868.55z"/>
		
			<linearGradient id="SVGID_00000174584423320781125340000007623778073550042008_" gradientUnits="userSpaceOnUse" x1="344.3019" y1="350.2337" x2="1152.1204" y2="1158.0521">
			<stop  offset="1.269467e-03" style="stop-color:#FFFFFF"/>
			<stop  offset="1" style="stop-color:#FFFFFF"/>
		</linearGradient>
		<path style="fill:url(#SVGID_00000174584423320781125340000007623778073550042008_);" d="M580.36,868.55
			c60.77,87.13,133.6,166.02,215.23,232.65c40.98,32.95,84.21,63.17,130.16,86.06c23.02,11.1,46.89,20.39,70.79,24.45
			c23.59,4.21,48.09,1.45,64.15-10.15c18.1-12.62,27.65-33.57,32.1-57.41c4.3-23.77,3.7-49.28,1.07-74.61
			c-5.68-50.89-20.32-101.49-38.38-150.55c-36.89-98.13-87.3-191.69-145.04-280.17c-58.39-88.2-125.96-171.26-206.21-240.48
			c-40.13-34.33-83.61-65.26-130.71-87.77c-23.47-11.11-48.02-20.13-72.77-23.8c-24.44-3.87-50-0.54-67.17,12.2
			c-18.9,13.48-28.06,35.71-32.6,59.81c-4.23,24.19-3.48,49.89-0.89,75.39c6.01,51.14,19.59,102.1,36.37,151.97
			C470.93,685.7,519.43,781.52,580.36,868.55z M577.83,870.31c-60.14-87.66-117.26-178.28-159.42-277.29
			c-20.86-49.45-38.26-101.13-45.19-155.68c-3.57-27.22-4.34-55.3,0.81-83.54c2.69-14.07,6.85-28.29,14.2-41.49
			c6.94-13.03,17.89-25.74,29.99-33.85c27.12-18.3,58.93-18.34,86.2-12.89c27.7,5.71,53.05,16.8,76.88,29.75
			c23.82,13.05,46.19,28.17,67.57,44.4c21.47,16.1,42.02,33.29,61.93,51.12c79.37,71.58,149.99,152.3,213.4,238.3
			c63.34,86.19,118.55,179.08,158.3,279.52c19.59,50.27,35.92,102.31,43.17,157.13c3.53,27.37,4.46,55.65-0.64,84.32
			c-2.68,14.29-6.87,28.74-14.16,42.43c-3.62,6.83-7.98,13.42-13.16,19.49c-2.6,3.06-5.35,5.86-8.4,8.69l-4.96,4.16l-4.01,2.96
			c-28.21,19.44-61.09,20.06-89.22,14.96c-28.54-5.34-54.58-16.15-78.86-29.13c-48.68-25.94-90.95-60.39-130.04-97.22
			C704.22,1042.24,638.88,957.37,577.83,870.31z"/>
		
			<linearGradient id="SVGID_00000067211198629343477090000002710376980302688926_" gradientUnits="userSpaceOnUse" x1="344.3019" y1="350.2337" x2="1152.1204" y2="1158.0521">
			<stop  offset="1.269467e-03" style="stop-color:#FFFFFF"/>
			<stop  offset="1" style="stop-color:#FFFFFF"/>
		</linearGradient>
		<path style="fill:url(#SVGID_00000067211198629343477090000002710376980302688926_);" d="M746.88,956.21
			c106.22,0.6,212.68-13.41,314.18-41.66c50.55-14.48,100.18-32.37,145.37-56.72c22.35-12.41,43.69-26.54,60.8-43.74
			c17.04-16.84,28.92-38.44,28.69-58.27c0.12-22.05-11.48-41.94-28.39-59.33c-16.93-17.21-38.13-31.43-60.35-43.9
			c-44.84-24.69-94.62-41.92-145.11-55.47c-101.45-26.45-206.96-39.22-312.55-43.08c-105.72-3.16-212.55,4.15-315.38,29.79
			c-51.19,12.99-101.54,30.67-147.08,56.18c-22.61,12.76-44.15,27.63-61.43,45.72c-17.26,17.74-29.27,40.54-28.77,61.91
			c0.12,23.23,13,43.52,30.06,61.12c17.32,17.42,38.74,31.62,61.09,44.21c45.23,24.59,94.7,42.87,145.11,57.93
			C534.38,940.17,640.64,955.8,746.88,956.21z M746.86,959.29c-106.3-1.42-213.27-7.02-318.47-29.67
			c-52.44-11.48-104.67-27.07-153.26-52.86c-24.28-12.77-47.68-28.35-67.77-48.83c-9.95-10.31-19.17-21.91-25.71-35.52
			c-6.63-13.19-10.72-29.47-10.36-44.03c0.69-32.72,19.01-58.71,39.17-77.87c20.64-19.33,44.32-33.66,68.65-45.65
			c24.41-11.93,49.65-21.5,75.23-29.6c25.55-8.27,51.43-15.13,77.48-21.11c104.25-23.58,210.91-34.72,317.74-36.94
			c106.95-2.02,214.67,6.43,319.66,31.89c52.36,12.98,104.29,29.64,153.26,55.32c24.41,12.91,48.04,28.45,68.52,49.16
			c10.13,10.42,19.53,22.18,26.51,36.02c3.48,6.89,6.37,14.25,8.34,21.99c1.01,3.89,1.71,7.75,2.26,11.87l0.53,6.45l0.11,4.99
			c-0.4,34.26-18.85,61.46-39.24,81.52c-20.8,20.24-44.67,35.28-69.27,47.62c-49.27,24.81-101.78,39.49-154.42,50.18
			C960.21,955.18,853.18,959.62,746.86,959.29z"/>
		<g>
			
				<linearGradient id="SVGID_00000100372271818399504520000001035100409116650370_" gradientUnits="userSpaceOnUse" x1="344.3019" y1="350.2337" x2="1152.1204" y2="1158.0521">
				<stop  offset="1.269467e-03" style="stop-color:#FFFFFF"/>
				<stop  offset="1" style="stop-color:#FFFFFF"/>
			</linearGradient>
			<path style="fill:url(#SVGID_00000100372271818399504520000001035100409116650370_);" d="M862.03,751.69
				c0,62.87-50.96,113.82-113.83,113.82c-62.86,0-113.82-50.95-113.82-113.82c0-62.86,50.96-113.82,113.82-113.82
				C811.07,637.87,862.03,688.84,862.03,751.69z"/>
			<g>
				<defs>
					<path id="SVGID_00000148628332966578180240000000241462520412632733_" d="M862.03,751.69c0,62.87-50.96,113.82-113.83,113.82
						c-62.86,0-113.82-50.95-113.82-113.82c0-62.86,50.96-113.82,113.82-113.82C811.07,637.87,862.03,688.84,862.03,751.69z"/>
				</defs>
				<clipPath id="SVGID_00000151511967296799067430000010261755656466997383_">
					<use xlink:href="#SVGID_00000148628332966578180240000000241462520412632733_"  style="overflow:visible;"/>
				</clipPath>
			</g>
		</g>
		<g>
			
				<linearGradient id="SVGID_00000166651412574977197270000000803754795490584196_" gradientUnits="userSpaceOnUse" x1="344.3019" y1="350.2337" x2="1152.1204" y2="1158.0521">
				<stop  offset="1.269467e-03" style="stop-color:#FFFFFF"/>
				<stop  offset="1" style="stop-color:#FFFFFF"/>
			</linearGradient>
			<path style="fill:url(#SVGID_00000166651412574977197270000000803754795490584196_);" d="M937.74,326.28
				c0,28.96-23.48,52.43-52.44,52.43c-28.96,0-52.43-23.47-52.43-52.43c0-28.96,23.47-52.43,52.43-52.43
				C914.26,273.85,937.74,297.32,937.74,326.28z"/>
			<g>
				<defs>
					<path id="SVGID_00000079444455250787167590000006414512779821299117_" d="M937.74,326.28c0,28.96-23.48,52.43-52.44,52.43
						c-28.96,0-52.43-23.47-52.43-52.43c0-28.96,23.47-52.43,52.43-52.43C914.26,273.85,937.74,297.32,937.74,326.28z"/>
				</defs>
				<clipPath id="SVGID_00000075152496952325998160000017607716067035408024_">
					<use xlink:href="#SVGID_00000079444455250787167590000006414512779821299117_"  style="overflow:visible;"/>
				</clipPath>
			</g>
		</g>
		<g>
			
				<linearGradient id="SVGID_00000072997918838597877360000001246494856454274713_" gradientUnits="userSpaceOnUse" x1="344.3019" y1="350.2337" x2="1152.1204" y2="1158.0521">
				<stop  offset="1.269467e-03" style="stop-color:#FFFFFF"/>
				<stop  offset="1" style="stop-color:#FFFFFF"/>
			</linearGradient>
			<path style="fill:url(#SVGID_00000072997918838597877360000001246494856454274713_);" d="M1157.06,1073.82
				c0,28.96-23.48,52.43-52.44,52.43c-28.96,0-52.43-23.47-52.43-52.43c0-28.96,23.47-52.43,52.43-52.43
				C1133.58,1021.39,1157.06,1044.86,1157.06,1073.82z"/>
			<g>
				<defs>
					<path id="SVGID_00000052067059038224764920000000502500057426192260_" d="M1157.06,1073.82c0,28.96-23.48,52.43-52.44,52.43
						c-28.96,0-52.43-23.47-52.43-52.43c0-28.96,23.47-52.43,52.43-52.43C1133.58,1021.39,1157.06,1044.86,1157.06,1073.82z"/>
				</defs>
				<clipPath id="SVGID_00000118366741043835724910000014630350423285487261_">
					<use xlink:href="#SVGID_00000052067059038224764920000000502500057426192260_"  style="overflow:visible;"/>
				</clipPath>
			</g>
		</g>
		<g>
			
				<linearGradient id="SVGID_00000091000460040223741400000010809532373848836243_" gradientUnits="userSpaceOnUse" x1="344.3019" y1="350.2337" x2="1152.1204" y2="1158.0521">
				<stop  offset="1.269467e-03" style="stop-color:#FFFFFF"/>
				<stop  offset="1" style="stop-color:#FFFFFF"/>
			</linearGradient>
			<path style="fill:url(#SVGID_00000091000460040223741400000010809532373848836243_);" d="M351.42,878.38
				c0,28.96-23.48,52.43-52.44,52.43c-28.96,0-52.43-23.47-52.43-52.43c0-28.96,23.47-52.43,52.43-52.43
				C327.94,825.95,351.42,849.42,351.42,878.38z"/>
			<g>
				<defs>
					<path id="SVGID_00000167355273776865867160000013235450716642881443_" d="M351.42,878.38c0,28.96-23.48,52.43-52.44,52.43
						c-28.96,0-52.43-23.47-52.43-52.43c0-28.96,23.47-52.43,52.43-52.43C327.94,825.95,351.42,849.42,351.42,878.38z"/>
				</defs>
				<clipPath id="SVGID_00000026867816596400873970000013564359287309863054_">
					<use xlink:href="#SVGID_00000167355273776865867160000013235450716642881443_"  style="overflow:visible;"/>
				</clipPath>
			</g>
		</g>
	</g>
	<g>
		<g>
			<g>
				<defs>
					<path id="SVGID_00000047052997149211331670000002131119715317362566_" d="M862.03,751.69c0,62.87-50.96,113.82-113.83,113.82
						c-62.86,0-113.82-50.95-113.82-113.82c0-62.86,50.96-113.82,113.82-113.82C811.07,637.87,862.03,688.84,862.03,751.69z"/>
				</defs>
				<clipPath id="SVGID_00000152256906521720779080000003051341981110003851_">
					<use xlink:href="#SVGID_00000047052997149211331670000002131119715317362566_"  style="overflow:visible;"/>
				</clipPath>
			</g>
		</g>
		<g>
			<g>
				<defs>
					<path id="SVGID_00000012433364788443474650000017698681604947026076_" d="M937.74,326.28c0,28.96-23.48,52.43-52.44,52.43
						c-28.96,0-52.43-23.47-52.43-52.43c0-28.96,23.47-52.43,52.43-52.43C914.26,273.85,937.74,297.32,937.74,326.28z"/>
				</defs>
				<clipPath id="SVGID_00000007388304518809231580000011129967803864224180_">
					<use xlink:href="#SVGID_00000012433364788443474650000017698681604947026076_"  style="overflow:visible;"/>
				</clipPath>
			</g>
		</g>
		<g>
			<g>
				<defs>
					<path id="SVGID_00000165939129009281620370000002119949514374189191_" d="M1157.06,1073.82c0,28.96-23.48,52.43-52.44,52.43
						c-28.96,0-52.43-23.47-52.43-52.43c0-28.96,23.47-52.43,52.43-52.43C1133.58,1021.39,1157.06,1044.86,1157.06,1073.82z"/>
				</defs>
				<clipPath id="SVGID_00000128461578716660592080000009099964962509548460_">
					<use xlink:href="#SVGID_00000165939129009281620370000002119949514374189191_"  style="overflow:visible;"/>
				</clipPath>
			</g>
		</g>
		<g>
			<g>
				<defs>
					<path id="SVGID_00000135686796869179461120000007296921813794222516_" d="M351.42,878.38c0,28.96-23.48,52.43-52.44,52.43
						c-28.96,0-52.43-23.47-52.43-52.43c0-28.96,23.47-52.43,52.43-52.43C327.94,825.95,351.42,849.42,351.42,878.38z"/>
				</defs>
				<clipPath id="SVGID_00000034085914822672693890000012614840993330229417_">
					<use xlink:href="#SVGID_00000135686796869179461120000007296921813794222516_"  style="overflow:visible;"/>
				</clipPath>
			</g>
		</g>
	</g>
</g>
</svg>
